<svg width="320" height="320" viewBox="0 0 320 320" fill="none" xmlns="http://www.w3.org/2000/svg" role="img" aria-labelledby="title desc">
  <title id="title">IsoPrep logo</title>
  <desc id="desc">A stylized isometric cube with a DNA-like strand representing long-read preprocessing.</desc>
  <defs>
    <linearGradient id="cubeA" x1="60" y1="90" x2="260" y2="240" gradientUnits="userSpaceOnUse">
      <stop stop-color="#2F80ED"/>
      <stop offset="1" stop-color="#56CCF2"/>
    </linearGradient>
    <linearGradient id="cubeB" x1="45" y1="150" x2="210" y2="285" gradientUnits="userSpaceOnUse">
      <stop stop-color="#1B4FA8"/>
      <stop offset="1" stop-color="#2F80ED"/>
    </linearGradient>
    <linearGradient id="cubeC" x1="125" y1="150" x2="280" y2="285" gradientUnits="userSpaceOnUse">
      <stop stop-color="#2391C8"/>
      <stop offset="1" stop-color="#6EDAF5"/>
    </linearGradient>
    <linearGradient id="dna" x1="105" y1="78" x2="213" y2="238" gradientUnits="userSpaceOnUse">
      <stop stop-color="#FFFFFF"/>
      <stop offset="1" stop-color="#E8F5FF"/>
    </linearGradient>
    <filter id="shadow" x="24" y="39" width="272" height="246" filterUnits="userSpaceOnUse" color-interpolation-filters="sRGB">
      <feDropShadow dx="0" dy="8" stdDeviation="10" flood-color="#0C2E6D" flood-opacity="0.20"/>
    </filter>
  </defs>

  <g filter="url(#shadow)">
    <path d="M160 48L266 109V212L160 273L54 212V109L160 48Z" fill="url(#cubeA)"/>
    <path d="M54 109L160 170V273L54 212V109Z" fill="url(#cubeB)"/>
    <path d="M266 109L160 170V273L266 212V109Z" fill="url(#cubeC)"/>
  </g>

  <path d="M117 95C147 95 147 143 177 143C191 143 199 132 206 121" stroke="url(#dna)" stroke-width="11" stroke-linecap="round"/>
  <path d="M117 145C147 145 147 193 177 193C191 193 199 182 206 171" stroke="url(#dna)" stroke-width="11" stroke-linecap="round"/>

  <path d="M132 115L189 173" stroke="#D8EEFF" stroke-width="7" stroke-linecap="round"/>
  <path d="M128 165L184 221" stroke="#D8EEFF" stroke-width="7" stroke-linecap="round"/>

  <circle cx="109" cy="95" r="7" fill="#FFFFFF"/>
  <circle cx="214" cy="171" r="7" fill="#FFFFFF"/>
</svg>
